<?xml version="1.0" encoding="iso-8859-1"?>
<!-- Generator: Adobe Illustrator 16.0.0, SVG Export Plug-In . SVG Version: 6.00 Build 0)  -->
<!DOCTYPE svg PUBLIC "-//W3C//DTD SVG 1.1//EN" "http://www.w3.org/Graphics/SVG/1.1/DTD/svg11.dtd">
<svg xmlns="http://www.w3.org/2000/svg" xmlns:xlink="http://www.w3.org/1999/xlink" version="1.1" id="Capa_1" x="0px" y="0px" width="512px" height="512px" viewBox="0 0 378.302 378.302" style="enable-background:new 0 0 378.302 378.302;" xml:space="preserve">
<g>
	<path d="M342.792,60.397C292.954,129.216,202.264,196.99,77.634,262.966c5.979-13.148,10.702-23.227,13.884-27.594   c11.011-15.203,33.408-58.257,33.408-58.257s11.8,8.215,13.405,4.426c1.576-3.801,68.346-162.727,68.346-162.727   s-31.481-35.136-42.738-9.376c-7.421,17.014-73.723,168.804-117.851,269.817c-8.513,4.273-17.131,8.582-25.924,12.856   c-9.873,4.333-4.77,15.157,10.69,22c-14.549,33.338-24.224,55.489-24.224,55.489s-0.298,11.082,7.701,8.232   c13.557-16.161,26.162-37.893,37.244-59.623c83.743-7.334,306.337-188.078,317.734-204.758   C381.046,96.321,345.326,43.325,342.792,60.397z M64.526,299.013c-2.615,2.452-6.731,2.301-9.166-0.292   c-2.452-2.616-2.312-6.726,0.298-9.179c2.615-2.451,6.72-2.312,9.172,0.305C67.265,292.45,67.137,296.572,64.526,299.013z" fill="#FFFFFF"/>
</g>
<g>
</g>
<g>
</g>
<g>
</g>
<g>
</g>
<g>
</g>
<g>
</g>
<g>
</g>
<g>
</g>
<g>
</g>
<g>
</g>
<g>
</g>
<g>
</g>
<g>
</g>
<g>
</g>
<g>
</g>
</svg>
